<svg width="147" height="34" viewBox="0 0 147 34" fill="none" xmlns="http://www.w3.org/2000/svg">
<g filter="url(#filter0_dd_7029_1782)">
<path d="M27.5001 13.6965C27.0236 15.2558 26.5472 16.8152 26.0707 18.4178C25.4643 20.3669 24.9012 22.3594 24.2948 24.3086C24.2082 24.5251 24.1216 24.7417 23.9916 24.9583C23.6884 25.3914 23.2119 25.608 22.6922 25.4347C22.3457 25.3481 22.0425 25.1315 21.6959 25.0016C21.4794 24.915 21.4361 24.785 21.5227 24.5685C22.0858 22.7926 22.6055 21.0167 23.1686 19.1975C23.4718 18.1579 23.775 17.1617 24.0782 16.1221C24.5547 14.5628 24.2515 13.0901 23.6451 11.6607C23.1253 10.3613 22.259 9.32175 21.2628 8.32552C20.3099 7.3726 19.4003 6.37636 18.4907 5.38013C18.3607 5.25019 18.3174 5.12024 18.3607 4.94698C18.4474 4.73041 18.534 4.47052 18.6639 4.25395C18.9671 3.69086 19.4869 3.47429 20.0933 3.60423C20.6564 3.73418 21.1329 4.03738 21.5227 4.47052C22.9954 6.02985 24.4681 7.54585 25.8974 9.10518C26.7637 10.0581 27.2402 11.1843 27.4568 12.4404C27.4568 12.527 27.5001 12.6137 27.5001 12.7003C27.5001 13.0035 27.5001 13.35 27.5001 13.6965Z" fill="#FC5D4A"/>
<path d="M12.3399 9.1918C12.3832 9.27843 12.4266 9.36506 12.5132 9.40837C13.2928 10.2313 14.0725 11.0543 14.8522 11.8773C16.0217 13.1334 16.6714 14.6061 16.7147 16.2954C16.7147 16.6419 16.6714 16.9884 16.5847 17.2916C15.5885 20.6701 14.549 24.0054 13.5527 27.3839C13.5094 27.6005 13.4228 27.7737 13.2928 27.9903C12.9896 28.4668 12.5132 28.64 11.9501 28.5101C11.3437 28.3801 10.8672 28.0769 10.4774 27.6438C9.00471 26.0845 7.53202 24.5684 6.10264 23.0091C5.06309 21.8396 4.54331 20.4969 4.5 18.9376C4.5 18.591 4.54331 18.2012 4.67326 17.8547C6.01601 13.3933 7.35876 8.93191 8.70151 4.47052C8.70151 4.38389 8.74482 4.34057 8.74482 4.25394C9.04802 3.34434 9.95763 3.17108 10.6073 3.90743C10.6507 3.99406 10.7373 4.03737 10.7806 4.08069C11.6036 4.77372 11.7768 5.68332 11.5169 6.63624C11.0405 8.32551 10.564 9.97146 10.0443 11.6607C9.43785 13.8698 8.83145 15.9055 8.22505 18.028C7.96516 18.8942 7.92185 19.8039 8.44162 20.5835C8.91808 21.2765 9.43785 21.9263 10.0443 22.4894C10.694 23.1391 11.2571 23.0091 11.5603 22.1428C12.0367 20.6701 12.4699 19.1974 12.903 17.7248C12.9896 17.4216 12.9896 17.075 12.9463 16.7718C12.903 16.0788 12.5132 15.4724 11.9501 15.0393C11.2137 14.5195 11.0405 13.7831 11.2137 13.0035C11.5169 11.7474 11.9068 10.4912 12.21 9.27843C12.2533 9.23511 12.2966 9.23511 12.3399 9.1918Z" fill="#FC5D4A"/>
<path d="M22.4756 14.8227C22.389 15.2125 22.259 15.7756 22.0858 16.3387C21.1328 19.4573 20.2232 22.576 19.2703 25.6946C19.1837 25.9112 19.0971 26.1711 18.9671 26.3443C18.6639 26.7775 18.2308 26.9074 17.711 26.8208C17.1912 26.7342 16.7581 26.4743 16.3682 26.0845C16.2816 25.9978 16.2816 25.8246 16.3249 25.7379C16.9746 23.5722 17.6244 21.4065 18.2741 19.2408C18.4907 18.5477 18.7072 17.8547 18.8372 17.1617C19.0971 15.689 18.7072 14.3029 18.1008 13.0035C17.6677 12.0939 17.1046 11.3142 16.3682 10.5779C15.3287 9.49501 14.3325 8.41215 13.2929 7.32928C13.163 7.19934 13.1197 7.0694 13.163 6.85283C13.2929 6.54962 13.3362 6.20311 13.4662 5.89991C13.7694 5.07693 14.5057 4.73041 15.3287 5.12025C15.7618 5.2935 16.1517 5.5967 16.4982 5.89991C17.9276 7.3726 19.3569 8.88861 20.743 10.4046C21.8692 11.6174 22.389 13.0035 22.4756 14.8227Z" fill="#FC5D4A"/>
</g>
<path d="M43.9995 23.3797C43.9995 25.9033 42.6663 27.1889 39.9998 27.1889C37.3333 27.1889 36 25.9033 36 23.3797V3.04758H38.8094V9.19005C39.3807 8.80912 40.095 8.61866 40.9521 8.61866C42.9996 8.61866 44.0471 9.90429 44.0471 12.4279V23.3797H43.9995ZM38.7617 23.3797C38.7617 24.1891 39.1903 24.6177 39.9998 24.6177C40.8092 24.6177 41.2378 24.1891 41.2378 23.3797V12.3803C41.2378 11.5709 40.8092 11.1423 39.9998 11.1423C39.1903 11.1423 38.8093 11.5232 38.7617 12.3327V23.3797Z" fill="white"/>
<path d="M48.9517 19.1895V23.4273C48.9517 24.2368 49.3802 24.6653 50.1897 24.6653C50.9992 24.6653 51.4277 24.2368 51.4277 23.4273V20.9989H54.2371V23.4273C54.2371 25.9509 52.9038 27.189 50.2373 27.2366C47.5708 27.2366 46.2375 25.9509 46.2375 23.4273V12.3804C46.2375 9.8567 47.5708 8.61868 50.2373 8.61868C52.9038 8.61868 54.2371 9.8567 54.2371 12.3804V19.1418H48.9517V19.1895ZM48.9517 16.6182H51.3801V12.3804C51.3801 11.5709 50.9515 11.19 50.1421 11.1423C49.3326 11.1423 48.9517 11.5709 48.9517 12.3804V16.6182Z" fill="white"/>
<path d="M59.189 26.9033H56.3796V12.3804C56.3796 9.8567 57.7129 8.61868 60.3794 8.61868C63.0459 8.61868 64.3791 9.8567 64.3791 12.3804V26.8556H61.5698V12.3804C61.5698 11.5709 61.1412 11.19 60.3318 11.1423C59.5223 11.1423 59.1414 11.5709 59.1414 12.3804V26.9033H59.189Z" fill="white"/>
<path d="M69.3789 19.1895V23.4273C69.3789 24.2368 69.8075 24.6653 70.6169 24.6653C71.4264 24.6653 71.8549 24.2368 71.8549 23.4273V20.9989H74.6643V23.4273C74.6643 25.9509 73.331 27.189 70.6645 27.2366C67.998 27.2366 66.6648 25.9509 66.6648 23.4273V12.3804C66.6648 9.8567 67.998 8.61868 70.6645 8.61868C73.331 8.61868 74.6643 9.8567 74.6643 12.3804V19.1418H69.3789V19.1895ZM69.3789 16.6182H71.8073V12.3804C71.8073 11.5709 71.3788 11.19 70.5693 11.1423C69.7598 11.1423 69.3789 11.5709 69.3789 12.3804V16.6182Z" fill="white"/>
<path d="M81.2829 5.57127C80.4735 5.57127 80.0449 5.99981 80.0449 6.80929V8.9044H81.2829V11.4757H80.0449V26.9033H77.2356V11.4757H76.0928V8.9044H77.2356V6.80929C77.2356 4.28563 78.5688 3 81.2353 3V5.57127H81.2829Z" fill="white"/>
<path d="M82.6638 4.04755H85.7113V6.8569H82.6638V4.04755ZM82.7591 8.90439H85.5684V26.9033H82.7591V8.90439Z" fill="white"/>
<path d="M91.6632 8.90436H93.806V11.4756H91.6632V26.9032H88.8539V11.4756H86.854V8.90436H88.8539V3.04758H91.6632V8.90436Z" fill="white"/>
<path d="M95.0916 12.3804C95.0916 9.8567 96.4248 8.61868 99.0913 8.61868C101.758 8.61868 103.091 9.8567 103.091 12.3804V14.8088H100.329V12.3804C100.329 11.5709 99.9008 11.19 99.0913 11.1423C98.2818 11.1423 97.9009 11.5709 97.9009 12.3804V13.9993C97.9009 14.8088 98.758 15.7611 100.52 16.9515C102.282 18.0943 103.139 19.4752 103.139 21.0941V23.3797C103.139 25.9033 101.805 27.189 99.1389 27.189C96.4724 27.189 95.1392 25.9033 95.1392 23.3797V20.9513H97.9485V23.3797C97.9485 24.1891 98.3771 24.6177 99.1865 24.6177C99.996 24.6177 100.425 24.1891 100.425 23.3797V21.3322C100.425 20.4751 99.5675 19.4275 97.8057 18.2847C96.0439 17.142 95.1868 15.7135 95.1868 14.0469V12.3804H95.0916Z" fill="white"/>
<path d="M107.853 9.14247C106.71 9.14247 105.52 9.5234 105.52 12.2851V24.0463C105.52 26.2843 106.519 27.189 108.853 27.189C111.186 27.189 112.186 26.2367 112.186 24.0463V3.19046H111.138V10.19L110.091 9.61863C109.71 9.28532 108.615 9.14247 107.853 9.14247ZM111.138 12.2851V24.0939C111.138 25.4272 110.281 26.2843 108.853 26.2843C107.472 26.2843 106.567 25.4272 106.567 24.0939V12.3328C106.567 10.9995 107.424 10.1424 108.853 10.1424C110.281 10.0948 111.138 10.9519 111.138 12.2851Z" fill="white"/>
<path d="M118.09 9.14246C115.757 9.14246 114.757 10.0948 114.757 12.2851V24.0463C114.757 26.2843 115.757 27.189 118.09 27.189C120.423 27.189 121.423 26.2366 121.423 24.0463V22.3321H120.376V24.0463C120.376 25.3795 119.519 26.2366 118.09 26.2366C116.709 26.2366 115.805 25.3795 115.805 24.0463V18.6657H121.423V12.2851C121.423 10.0948 120.423 9.14246 118.09 9.14246ZM120.376 17.7134H115.852V12.2851C115.852 10.9519 116.709 10.0948 118.09 10.0948C119.519 10.0948 120.376 10.9519 120.376 12.2851V17.7134Z" fill="white"/>
<path d="M127.328 9.14246C124.995 9.14246 123.995 10.0948 123.995 12.2851V30.7602H125.09V26.1414L126.137 26.7128C126.566 26.9985 127.661 27.1413 128.375 27.1413C129.518 27.1413 130.708 26.7604 130.708 23.9987V12.3327C130.661 10.0948 129.661 9.14246 127.328 9.14246ZM129.566 24.0939C129.566 25.4272 128.709 26.2843 127.28 26.2843C125.899 26.2843 124.995 25.4272 124.995 24.0939V12.2851C124.995 10.9519 125.852 10.0948 127.28 10.0948C128.661 10.0948 129.566 10.9519 129.566 12.2851V24.0939Z" fill="white"/>
<path d="M136.518 9.14246C134.185 9.14246 133.185 10.0948 133.185 12.2851V24.0463C133.185 26.2843 134.185 27.189 136.518 27.189C138.851 27.189 139.851 26.2366 139.851 24.0463V12.2851C139.851 10.0948 138.851 9.14246 136.518 9.14246ZM138.803 24.0939C138.803 25.4272 137.946 26.2843 136.518 26.2843C135.137 26.2843 134.232 25.4272 134.232 24.0939V12.2851C134.232 10.9519 135.089 10.0948 136.47 10.0948C137.899 10.0948 138.756 10.9519 138.756 12.2851V24.0939H138.803Z" fill="white"/>
<path d="M144.66 3.19046H143.565V9.42817H141.422V10.4281H143.565V26.9509H144.66V10.4281H146.993V9.42817H144.66V3.19046Z" fill="white"/>
<defs>
<filter id="filter0_dd_7029_1782" x="0.915352" y="1.05839" width="30.1693" height="32.273" filterUnits="userSpaceOnUse" color-interpolation-filters="sRGB">
<feFlood flood-opacity="0" result="BackgroundImageFix"/>
<feColorMatrix in="SourceAlpha" type="matrix" values="0 0 0 0 0 0 0 0 0 0 0 0 0 0 0 0 0 0 127 0" result="hardAlpha"/>
<feOffset dy="1.19488"/>
<feGaussianBlur stdDeviation="1.19488"/>
<feColorMatrix type="matrix" values="0 0 0 0 0.0627451 0 0 0 0 0.0941176 0 0 0 0 0.156863 0 0 0 0.06 0"/>
<feBlend mode="normal" in2="BackgroundImageFix" result="effect1_dropShadow_7029_1782"/>
<feColorMatrix in="SourceAlpha" type="matrix" values="0 0 0 0 0 0 0 0 0 0 0 0 0 0 0 0 0 0 127 0" result="hardAlpha"/>
<feOffset dy="1.19488"/>
<feGaussianBlur stdDeviation="1.79232"/>
<feColorMatrix type="matrix" values="0 0 0 0 0.0627451 0 0 0 0 0.0941176 0 0 0 0 0.156863 0 0 0 0.1 0"/>
<feBlend mode="normal" in2="effect1_dropShadow_7029_1782" result="effect2_dropShadow_7029_1782"/>
<feBlend mode="normal" in="SourceGraphic" in2="effect2_dropShadow_7029_1782" result="shape"/>
</filter>
</defs>
</svg>
