<svg width="226" height="54" viewBox="0 0 226 54" fill="none" xmlns="http://www.w3.org/2000/svg">
<g clip-path="url(#clip0_7_22)">
<path fill-rule="evenodd" clip-rule="evenodd" d="M17.7659 53.6414V49.2373C17.7659 45.7632 19.5269 42.7839 22.5473 41.1487L32.7847 35.6007C33.8434 35.0287 35.0232 35.0567 36.0508 35.6814C37.0783 36.306 37.663 37.3517 37.663 38.5659V42.8576L17.7659 53.6414Z" fill="#8BE57C"/>
<path fill-rule="evenodd" clip-rule="evenodd" d="M37.6631 42.8576V38.4466C37.6631 34.976 35.9055 32.0002 32.8921 30.3614L6.91956 16.244V20.655C6.91956 24.1256 8.67712 27.1014 11.6906 28.7402L37.6631 42.8576Z" fill="#1AA57B"/>
<path fill-rule="evenodd" clip-rule="evenodd" d="M37.6631 30.3755V25.9644C37.6631 22.4939 35.9055 19.5181 32.8921 17.8793L0 0V4.41104C0 7.88162 1.75756 10.8574 4.77103 12.4962L37.6631 30.3755Z" fill="#1AA57B"/>
</g>
<circle cx="215.728" cy="25.4533" r="10.2717" fill="#1AA57B"/>
<path d="M217.389 20.0084V30.9942H214.739V22.4866H214.674L212.218 23.9886V21.6927L214.926 20.0084H217.389Z" fill="white"/>
<path d="M54.7852 43.1815H47.1151V22.4305H54.7751C56.8894 22.4305 58.7098 22.8459 60.2364 23.6768C61.7698 24.5009 62.9519 25.6897 63.7827 27.2434C64.6136 28.7902 65.029 30.6411 65.029 32.7959C65.029 34.9574 64.6136 36.815 63.7827 38.3687C62.9586 39.9223 61.7799 41.1145 60.2466 41.9454C58.7132 42.7695 56.8928 43.1815 54.7852 43.1815ZM52.1306 38.9057H54.5927C55.7546 38.9057 56.7374 38.7098 57.5412 38.318C58.3518 37.9195 58.9631 37.2744 59.3752 36.3827C59.794 35.4843 60.0034 34.2887 60.0034 32.7959C60.0034 31.3031 59.794 30.1142 59.3752 29.2293C58.9564 28.3377 58.3383 27.6959 57.521 27.3042C56.7104 26.9056 55.7107 26.7064 54.5218 26.7064H52.1306V38.9057ZM75.2323 43.4754C73.6043 43.4754 72.1993 43.1545 71.0172 42.5128C69.8419 41.8643 68.9367 40.9423 68.3018 39.7467C67.6736 38.5443 67.3595 37.1156 67.3595 35.4607C67.3595 33.853 67.6769 32.448 68.3119 31.2456C68.9469 30.0365 69.8419 29.0976 70.997 28.4288C72.152 27.7534 73.5132 27.4156 75.0803 27.4156C76.1881 27.4156 77.2013 27.5879 78.12 27.9324C79.0387 28.2769 79.8324 28.7869 80.5011 29.4623C81.1698 30.1378 81.6899 30.9721 82.0615 31.965C82.433 32.9512 82.6187 34.0827 82.6187 35.3594V36.5955H69.0921V33.7179H78.0085C78.0018 33.191 77.8768 32.7216 77.6336 32.3095C77.3905 31.8975 77.0561 31.5766 76.6305 31.347C76.2117 31.1105 75.7288 30.9923 75.1816 30.9923C74.6277 30.9923 74.1312 31.1173 73.6922 31.3672C73.2531 31.6104 72.9052 31.9448 72.6485 32.3703C72.3918 32.7891 72.2567 33.2653 72.2432 33.799V36.7272C72.2432 37.3622 72.3682 37.9195 72.6181 38.3991C72.8681 38.8719 73.2227 39.24 73.682 39.5035C74.1414 39.7669 74.6885 39.8986 75.3235 39.8986C75.7625 39.8986 76.1611 39.8379 76.5191 39.7163C76.8771 39.5947 77.1844 39.4157 77.4411 39.1792C77.6978 38.9428 77.8903 38.6524 78.0187 38.3079L82.5681 38.4396C82.3789 39.4596 81.9635 40.3478 81.3218 41.1044C80.6868 41.8542 79.8526 42.4385 78.8191 42.8573C77.7856 43.2693 76.59 43.4754 75.2323 43.4754ZM85.1493 43.1815V22.4305H90.104V30.2831H90.2053C90.408 29.8102 90.6951 29.3543 91.0666 28.9152C91.4448 28.4761 91.9244 28.1181 92.5054 27.8412C93.093 27.5575 93.7955 27.4156 94.6129 27.4156C95.6937 27.4156 96.7035 27.6993 97.6425 28.2667C98.5881 28.8341 99.3514 29.7089 99.9324 30.891C100.513 32.0731 100.804 33.5794 100.804 35.41C100.804 37.173 100.523 38.649 99.9628 39.8379C99.4089 41.0267 98.6591 41.9184 97.7134 42.5128C96.7744 43.1072 95.7308 43.4044 94.5825 43.4044C93.7989 43.4044 93.1201 43.2761 92.5459 43.0194C91.9717 42.7627 91.4888 42.425 91.097 42.0062C90.7119 41.5874 90.4147 41.1382 90.2053 40.6586H90.0533V43.1815H85.1493ZM90.0027 35.3999C90.0027 36.2375 90.1141 36.967 90.337 37.5885C90.5667 38.2099 90.8943 38.6929 91.3199 39.0374C91.7522 39.3751 92.2689 39.544 92.8701 39.544C93.4781 39.544 93.9948 39.3751 94.4204 39.0374C94.8459 38.6929 95.1668 38.2099 95.3829 37.5885C95.6059 36.967 95.7173 36.2375 95.7173 35.3999C95.7173 34.5623 95.6059 33.8361 95.3829 33.2214C95.1668 32.6067 94.8459 32.1305 94.4204 31.7928C94.0016 31.455 93.4848 31.2862 92.8701 31.2862C92.2622 31.2862 91.7454 31.4517 91.3199 31.7826C90.8943 32.1136 90.5667 32.5865 90.337 33.2012C90.1141 33.8159 90.0027 34.5488 90.0027 35.3999ZM112.185 27.6183V31.2659H102.367V27.6183H112.185ZM104.424 23.8896H109.378V38.2876C109.378 38.5916 109.426 38.8381 109.52 39.0273C109.621 39.2096 109.767 39.3414 109.956 39.4224C110.145 39.4967 110.371 39.5339 110.635 39.5339C110.824 39.5339 111.023 39.517 111.232 39.4832C111.449 39.4427 111.611 39.4089 111.719 39.3819L112.469 42.9586C112.232 43.0262 111.898 43.1106 111.465 43.2119C111.04 43.3132 110.53 43.3774 109.935 43.4044C108.774 43.4585 107.777 43.3234 106.946 42.9991C106.122 42.6681 105.491 42.1548 105.052 41.459C104.619 40.7633 104.41 39.8885 104.424 38.8347V23.8896ZM120.843 43.1815V22.4305H129.415C130.969 22.4305 132.309 22.7108 133.437 23.2715C134.572 23.8254 135.447 24.6225 136.062 25.6627C136.676 26.6962 136.984 27.9222 136.984 29.3408C136.984 30.7795 136.67 32.0022 136.041 33.0087C135.413 34.0084 134.522 34.7717 133.367 35.2986C132.211 35.8187 130.844 36.0788 129.263 36.0788H123.842V32.1271H128.331C129.087 32.1271 129.719 32.0292 130.225 31.8333C130.739 31.6307 131.127 31.3267 131.391 30.9214C131.654 30.5094 131.786 29.9825 131.786 29.3408C131.786 28.699 131.654 28.1688 131.391 27.75C131.127 27.3244 130.739 27.0069 130.225 26.7975C129.712 26.5814 129.081 26.4733 128.331 26.4733H125.858V43.1815H120.843ZM132.526 33.6977L137.693 43.1815H132.222L127.155 33.6977H132.526ZM146.703 43.4754C145.075 43.4754 143.67 43.1545 142.488 42.5128C141.313 41.8643 140.408 40.9423 139.773 39.7467C139.144 38.5443 138.83 37.1156 138.83 35.4607C138.83 33.853 139.148 32.448 139.783 31.2456C140.418 30.0365 141.313 29.0976 142.468 28.4288C143.623 27.7534 144.984 27.4156 146.551 27.4156C147.659 27.4156 148.672 27.5879 149.591 27.9324C150.51 28.2769 151.303 28.7869 151.972 29.4623C152.641 30.1378 153.161 30.9721 153.532 31.965C153.904 32.9512 154.09 34.0827 154.09 35.3594V36.5955H140.563V33.7179H149.479C149.473 33.191 149.348 32.7216 149.105 32.3095C148.861 31.8975 148.527 31.5766 148.101 31.347C147.683 31.1105 147.2 30.9923 146.653 30.9923C146.099 30.9923 145.602 31.1173 145.163 31.3672C144.724 31.6104 144.376 31.9448 144.119 32.3703C143.863 32.7891 143.728 33.2653 143.714 33.799V36.7272C143.714 37.3622 143.839 37.9195 144.089 38.3991C144.339 38.8719 144.694 39.24 145.153 39.5035C145.612 39.7669 146.159 39.8986 146.794 39.8986C147.233 39.8986 147.632 39.8379 147.99 39.7163C148.348 39.5947 148.655 39.4157 148.912 39.1792C149.169 38.9428 149.361 38.6524 149.49 38.3079L154.039 38.4396C153.85 39.4596 153.434 40.3478 152.793 41.1044C152.158 41.8542 151.324 42.4385 150.29 42.8573C149.257 43.2693 148.061 43.4754 146.703 43.4754ZM161.575 22.4305V43.1815H156.62V22.4305H161.575ZM164.729 43.1815V27.6183H169.683V43.1815H164.729ZM167.211 25.8046C166.515 25.8046 165.917 25.5749 165.418 25.1156C164.918 24.6495 164.668 24.0888 164.668 23.4336C164.668 22.7851 164.918 22.2312 165.418 21.7719C165.917 21.3058 166.515 21.0728 167.211 21.0728C167.914 21.0728 168.511 21.3058 169.004 21.7719C169.504 22.2312 169.754 22.7851 169.754 23.4336C169.754 24.0888 169.504 24.6495 169.004 25.1156C168.511 25.5749 167.914 25.8046 167.211 25.8046ZM180.112 43.4754C178.484 43.4754 177.079 43.1545 175.897 42.5128C174.722 41.8643 173.816 40.9423 173.181 39.7467C172.553 38.5443 172.239 37.1156 172.239 35.4607C172.239 33.853 172.557 32.448 173.192 31.2456C173.827 30.0365 174.722 29.0976 175.877 28.4288C177.032 27.7534 178.393 27.4156 179.96 27.4156C181.068 27.4156 182.081 27.5879 183 27.9324C183.918 28.2769 184.712 28.7869 185.381 29.4623C186.05 30.1378 186.57 30.9721 186.941 31.965C187.313 32.9512 187.498 34.0827 187.498 35.3594V36.5955H173.972V33.7179H182.888C182.882 33.191 182.757 32.7216 182.513 32.3095C182.27 31.8975 181.936 31.5766 181.51 31.347C181.091 31.1105 180.608 30.9923 180.061 30.9923C179.507 30.9923 179.011 31.1173 178.572 31.3672C178.133 31.6104 177.785 31.9448 177.528 32.3703C177.272 32.7891 177.136 33.2653 177.123 33.799V36.7272C177.123 37.3622 177.248 37.9195 177.498 38.3991C177.748 38.8719 178.102 39.24 178.562 39.5035C179.021 39.7669 179.568 39.8986 180.203 39.8986C180.642 39.8986 181.041 39.8379 181.399 39.7163C181.757 39.5947 182.064 39.4157 182.321 39.1792C182.578 38.9428 182.77 38.6524 182.898 38.3079L187.448 38.4396C187.259 39.4596 186.843 40.3478 186.202 41.1044C185.567 41.8542 184.732 42.4385 183.699 42.8573C182.665 43.2693 181.47 43.4754 180.112 43.4754ZM198.875 27.6183V31.2659H188.864V27.6183H198.875ZM190.951 43.1815V26.8279C190.951 25.6256 191.177 24.6292 191.63 23.8389C192.082 23.0418 192.711 22.4474 193.515 22.0556C194.318 21.6571 195.247 21.4578 196.301 21.4578C196.99 21.4578 197.638 21.5118 198.246 21.6199C198.861 21.7212 199.317 21.8124 199.614 21.8935L198.824 25.5209C198.641 25.4601 198.419 25.4094 198.155 25.3689C197.898 25.3284 197.655 25.3081 197.426 25.3081C196.845 25.3081 196.446 25.4364 196.23 25.6931C196.014 25.9498 195.906 26.3011 195.906 26.7469V43.1815H190.951Z" fill="white"/>
<defs>
<clipPath id="clip0_7_22">
<rect width="37.6631" height="53.6414" fill="white"/>
</clipPath>
</defs>
</svg>
