<svg xmlns="http://www.w3.org/2000/svg" xmlns:xlink="http://www.w3.org/1999/xlink" width="869px" height="181px" viewBox="0 0 869 181"><title>Group</title><g id="Page-1" stroke="none" stroke-width="1" fill="none" fill-rule="evenodd"><g id="Artboard" transform="translate(-157.000000, -509.000000)" fill-rule="nonzero"><g id="Group" transform="translate(157.000000, 509.000000)"><g id="Eluminus." transform="translate(237.500000, 39.450000)"><polygon id="Path" fill="#17153A" points="23.4 66.3 61.35 66.3 61.35 45.3 23.4 45.3 23.4 28.05 68.1 28.05 68.1 7.05 0 7.05 0 104.55 68.1 104.55 68.1 83.55 23.4 83.55"></polygon><polygon id="Path" fill="#17153A" points="99.1 0.3 78.1 0.3 78.1 104.55 99.1 104.55"></polygon><path d="M109.1,67.5 C109.1,88.5 125,104.7 144.8,104.55 C151.7,104.55 158,102.75 163.7,96.45 L163.7,104.55 L184.7,104.55 L184.7,27 L163.7,27 L163.7,65.7 C163.7,65.7 163.7,65.7 163.7,65.85 C163.7,70.95 161.6,84.9 146.15,84.9 C132.05,84.9 128.6,71.1 128.6,66 C128.6,65.85 128.6,65.85 128.6,65.7 L128.6,27 L128.6,27 L109.1,27 C109.1,27 109.1,55.2 109.1,67.5 Z" id="Path" fill="#17153A"></path><path d="M289.2,27.15 C282.45,27.15 275.4,28.65 268.35,34.35 L262.05,40.2 C255.6,32.1 245.7,27 234.6,27.15 C227.7,27.15 221.55,28.8 215.7,35.1 L215.7,27 L194.7,27 L194.7,104.55 L215.7,104.55 L215.7,66 C215.7,65.85 215.7,65.85 215.7,65.85 C215.7,60.75 217.8,46.65 233.25,46.65 C247.35,46.65 250.8,60.6 250.8,65.55 C250.8,65.7 250.8,65.85 250.8,66 L250.8,104.55 L250.8,104.55 L270.3,104.55 L270.45,104.55 L270.45,66 C270.45,65.85 270.45,65.85 270.45,65.85 C270.45,60.75 272.55,46.65 287.85,46.65 C302.1,46.65 305.4,60.6 305.55,65.55 C305.55,65.7 305.55,65.85 305.55,66 L305.55,104.55 L305.55,104.55 L325.05,104.55 C325.05,104.55 325.05,76.35 325.05,64.2 C325.05,39.6 309.15,27 289.2,27.15 Z" id="Path" fill="#17153A"></path><path d="M355.9,0 L335.05,0 L335.05,17.7 L355.9,17.7 L355.9,0 Z M356.05,27.45 L335.05,27.45 L335.05,104.55 L356.05,104.55 L356.05,27.45 Z" id="Shape" fill="#17153A"></path><path d="M404.45,27.6 C397.55,28.2 391.85,29.55 385.55,37.05 L385.55,27 L364.55,27 L364.55,104.55 L385.55,104.55 L385.55,66.45 L385.7,66.45 C385.7,66.45 385.7,66.3 385.7,66.3 C385.55,61.2 387.5,56.4 391.1,52.8 C394.7,49.2 399.5,47.25 404.6,47.1 C409.7,47.1 414.5,49.05 418.1,52.65 C421.7,56.25 423.65,61.05 423.65,66.15 C423.65,66.15 423.65,66.3 423.65,66.45 L423.8,66.45 L423.8,99.75 L423.8,104.55 L443.3,104.55 L443.3,67.8 C443.3,67.2 443.3,66.6 443.3,66 C443.3,39.45 425.6,25.8 404.45,27.6 Z" id="Path" fill="#17153A"></path><path d="M451.8,67.5 C451.8,88.5 467.7,104.7 487.5,104.55 C494.4,104.55 500.7,102.75 506.4,96.45 L506.4,104.55 L527.4,104.55 L527.4,27 L506.4,27 L506.4,65.7 C506.4,65.7 506.4,65.7 506.4,65.85 C506.4,70.95 504.3,84.9 488.85,84.9 C474.75,84.9 471.3,71.1 471.3,66 C471.3,65.85 471.3,65.85 471.3,65.7 L471.3,27 L471.3,27 L451.8,27 C451.8,27 451.8,55.2 451.8,67.5 Z" id="Path" fill="#17153A"></path><path d="M568.6,104.55 C574.9,104.55 580.15,103.8 584.65,102.3 C589,100.8 592.6,98.55 595.15,95.55 C600.25,89.7 600.25,83.4 600.25,81 C600.25,75.75 598.45,70.95 595,66.9 C589.9,60.9 581.35,57.15 569.95,55.95 C565.15,55.35 561.55,54.45 559.3,53.1 C557.2,51.9 556.3,50.55 556.3,48.75 C556.3,45.15 562.6,43.5 568.9,43.5 C574.45,43.5 578.65,45.15 580.75,48 C581.95,49.65 582.1,52.05 582.1,52.8 C582.1,52.8 582.1,52.8 582.1,52.95 L582.1,54.15 L600.25,54.15 L600.25,52.8 C600.25,51.9 600.25,44.55 596.05,38.1 C592.3,32.25 584.5,25.35 568.9,25.35 C557.05,25.35 548.35,28.5 542.95,34.65 C540.4,37.5 537.55,42.45 537.55,49.65 C537.55,55.05 539.35,59.7 542.95,63.75 C545.5,66.45 548.8,68.7 552.85,70.35 C556.9,72.15 562,73.35 567.85,73.95 C572.95,74.55 581.65,76.2 581.65,81 C581.65,81.9 581.35,83.4 578.95,84.6 C576.7,85.8 573.25,86.25 568.6,86.25 C563.05,86.25 559.15,84.9 557.35,81.9 C555.85,79.5 555.7,75.75 555.7,75.75 L555.7,74.55 L554.35,74.55 L537.55,74.25 L537.55,75.75 C537.55,75.75 537.55,75.75 537.55,75.9 C537.1,83.85 539.95,90.9 545.35,96 C548.65,99 551.65,100.95 554.95,102.15 C559,103.8 563.5,104.55 568.6,104.55 Z" id="Path" fill="#17153A"></path><polygon id="Path" fill="#FF5B02" points="631.25 104.55 631.25 83.55 610.25 83.55 610.25 104.55"></polygon></g><g id="g128" transform="translate(93.000000, 90.500000) scale(-1, 1) rotate(-180.000000) translate(-93.000000, -90.500000) translate(-0.000000, 0.000000)"><g id="g130" transform="translate(0.000000, 0.000000)"><g id="g136" fill="#1E5ED8"><path d="M159.512518,154.493694 C142.431148,171.586169 119.720363,181 95.5647872,181 C71.4081786,181 48.6984259,171.586169 31.6170567,154.493694 C14.5356875,137.400185 5.12854168,114.674293 5.12854168,90.5005167 C5.12854168,73.9898823 9.5197135,58.1561674 17.7443824,44.3304747 C21.0832015,45.5210262 24.8206546,46.4687134 29.0321313,47.0526211 C36.3531607,48.0674835 44.7100192,47.6892354 54.1853252,44.5836735 C41.6428084,55.9135487 33.7444824,72.3001673 33.7444824,90.5005167 C33.7444824,124.612091 61.4774382,152.364756 95.5647872,152.364756 C129.652136,152.364756 157.385092,124.612091 157.385092,90.5005167 C157.385092,56.3889425 129.652136,28.6362775 95.5647872,28.6362775 C86.6089448,28.6362775 78.107504,30.5781579 70.4167569,34.0226963 C53.4841009,42.1912024 40.7587907,41.0378556 30.1185642,37.2729432 C1.50572166,27.1470546 0,3.15930204 0,3.15930204 C23.1569251,28.7065531 53.7815274,10.0752488 53.7815274,10.0752488 L53.8527859,10.1661937 C66.5811943,3.52721553 80.7998334,0 95.5647872,0 C119.720363,0 142.431148,9.4138313 159.512518,26.5073399 C176.592854,43.6008485 186,66.3267405 186,90.5005167 C186,114.674293 176.592854,137.400185 159.512518,154.493694" id="path138"></path></g><g id="g140" transform="translate(41.920510, 56.960552)" fill="#FF5B02"><path d="M75.8530524,35.8147243 L75.8530524,27.2628027 C77.4837345,24.2058137 78.6011493,20.3871611 78.9688015,16.1592564 C77.6438078,15.404827 76.2227701,14.9904076 74.7418339,14.9904076 C73.2619305,14.9904076 71.8408928,15.404827 70.5158991,16.1592564 C70.8825185,20.3871611 72.0009661,24.2068471 73.6316482,27.2638362 L73.6316482,35.2535529 L57.8349963,31.2643786 C56.4593987,30.9171344 55.049721,30.7414454 53.6441742,30.7414454 C52.2386275,30.7414454 50.8289498,30.9171344 49.4543849,31.2643786 L20.2900641,38.6288491 L20.2900641,14.6979371 C20.2900641,8.91673471 34.6130091,0 53.6441742,0 C72.6763721,0 86.9993171,8.91673471 86.9993171,14.6979371 L86.9993171,38.6288491 L75.8530524,35.8147243 Z M107.288348,48.0933202 C107.288348,47.4608397 107.007446,46.7146781 106.218439,46.5152193 L75.9924711,38.8830814 L54.3908387,50.9622186 C53.9725827,51.1947482 53.3219622,51.0314607 53.0296993,50.582937 C52.6837345,50.0527695 53.0224702,49.3324445 53.4396935,49.0988815 L73.0357625,38.1410537 L57.3206963,34.1673813 C54.9082369,33.5576371 52.3801116,33.5576371 49.9676522,34.1673813 L1.06990922,46.5152193 C0.280902807,46.7146781 0,47.4608397 0,48.0922867 C0,48.7247672 0.280902807,49.4698953 1.06990922,49.6693541 L49.9676522,62.0171921 C51.1738819,62.3220642 52.4110935,62.4770839 53.6441742,62.4770839 C54.8772549,62.4770839 56.1144666,62.3220642 57.3206963,62.0171921 L106.218439,49.6693541 C107.007446,49.4698953 107.288348,48.7247672 107.288348,48.0933202" id="path142"></path></g></g></g></g></g></g></svg>