<svg width="117" height="32" viewBox="0 0 117 32" fill="none" xmlns="http://www.w3.org/2000/svg">
<path fill-rule="evenodd" clip-rule="evenodd" d="M4.67561 9.30044C7.25787 9.30044 9.35121 7.21846 9.35121 4.65022C9.35121 2.08197 7.25787 0 4.67561 0C2.09334 0 0 2.08197 0 4.65022C0 7.21846 2.09334 9.30044 4.67561 9.30044ZM56.4907 13.9742C56.118 14.3285 55.9316 14.7714 55.9316 15.3028V24.9133C55.9316 25.9466 55.5876 26.7881 54.8995 27.4377C54.2401 28.0577 53.3513 28.3677 52.2331 28.3677C51.1436 28.3677 50.2691 28.0577 49.6097 27.4377C48.9503 26.7881 48.6206 25.9466 48.6206 24.9133V15.3028C48.6206 14.7418 48.4342 14.299 48.0615 13.9742C47.7174 13.6199 47.2587 13.4427 46.6853 13.4427C46.1119 13.4427 45.6388 13.6199 45.2661 13.9742C44.922 14.299 44.75 14.7418 44.75 15.3028V24.9133C44.75 27.0686 45.4238 28.7958 46.7713 30.0949C48.1475 31.3645 49.9681 31.9993 52.2331 31.9993C54.5268 31.9993 56.3617 31.3645 57.7379 30.0949C59.1141 28.7958 59.8022 27.0686 59.8022 24.9133V15.3028C59.8022 14.7418 59.6159 14.2842 59.2431 13.9299C58.8704 13.5756 58.4117 13.3984 57.8669 13.3984C57.3222 13.3984 56.8635 13.5904 56.4907 13.9742ZM107.788 31.5121C108.174 31.8369 108.649 31.9993 109.213 31.9993C109.806 31.9993 110.281 31.8369 110.638 31.5121C111.024 31.1578 111.217 30.7002 111.217 30.1392V25.489C111.217 25.1642 111.231 24.8542 111.261 24.559C111.32 24.2342 111.454 23.9242 111.662 23.6289L116.649 16.4986C116.887 16.1148 117.005 15.7605 117.005 15.4357C117.005 14.8747 116.798 14.4023 116.382 14.0185C115.996 13.6051 115.506 13.3984 114.912 13.3984C114.2 13.3984 113.666 13.6937 113.309 14.2842L110.103 19.4659C109.836 19.8792 109.554 20.0859 109.257 20.0859C108.96 20.0859 108.678 19.8792 108.411 19.4659L105.116 14.2842C104.76 13.6937 104.225 13.3984 103.513 13.3984C102.949 13.3984 102.459 13.6051 102.043 14.0185C101.628 14.4023 101.42 14.8747 101.42 15.4357C101.42 15.7605 101.539 16.1148 101.776 16.4986L106.764 23.6289C106.971 23.9242 107.09 24.2342 107.12 24.559C107.179 24.8542 107.209 25.1642 107.209 25.489V30.1392C107.209 30.7002 107.402 31.1578 107.788 31.5121ZM88.3454 31.4619C88.7668 31.8205 89.2485 31.9997 89.7904 31.9997C90.3323 31.9997 90.7989 31.8205 91.1902 31.4619C91.6117 31.0734 91.8224 30.6252 91.8224 30.1172V25.3662C91.8224 24.7686 92.1235 24.4698 92.7256 24.4698H96.9703C97.4821 24.4698 97.9186 24.3054 98.2798 23.9767C98.6712 23.6181 98.8669 23.1849 98.8669 22.6769C98.8669 22.139 98.6862 21.7058 98.325 21.3771C97.9938 21.0484 97.5423 20.884 96.9703 20.884H92.7256C92.1235 20.884 91.8224 20.5852 91.8224 19.9876V17.9707C91.8224 17.373 92.1235 17.0742 92.7256 17.0742H97.6025C98.1443 17.0742 98.5959 16.8949 98.9572 16.5364C99.3184 16.1778 99.499 15.7445 99.499 15.2365C99.499 14.6688 99.3335 14.2206 99.0023 13.8919C98.6712 13.5632 98.2046 13.3989 97.6025 13.3989H90.558C89.7151 13.3989 89.0378 13.6529 88.526 14.1608C88.0142 14.6389 87.7583 15.3112 87.7583 16.1778V30.1172C87.7583 30.6252 87.954 31.0734 88.3454 31.4619ZM65.037 31.955C64.4975 31.955 64.0329 31.7762 63.6433 31.4185C63.2537 31.0309 63.0589 30.5838 63.0589 30.0771V16.3053C63.0589 15.4408 63.3286 14.7403 63.8681 14.2037C64.4376 13.6672 65.1869 13.3989 66.116 13.3989H70.6118C72.44 13.3989 73.9087 13.9354 75.0176 15.0086C76.1565 16.0817 76.726 17.4231 76.726 19.0328C76.726 19.9867 76.4713 20.881 75.9617 21.7156C75.4522 22.5503 74.7179 23.221 73.7588 23.7277C74.1784 23.9364 74.5531 24.2196 74.8828 24.5773C75.2424 24.935 75.5271 25.3672 75.7369 25.874L77.2205 29.2722C77.3704 29.6299 77.4453 29.928 77.4453 30.1665C77.4453 30.703 77.2355 31.1502 76.8159 31.5079C76.3963 31.8358 75.9318 31.9997 75.4222 31.9997C75.0925 31.9997 74.7629 31.9103 74.4332 31.7315C74.1335 31.5526 73.8937 31.2694 73.7138 30.8819L72.0054 26.813C71.7057 26.0975 71.3011 25.5908 70.7916 25.2927C70.312 24.9648 69.7426 24.8008 69.0832 24.8008H67.9143C67.3149 24.8008 67.0151 25.0989 67.0151 25.6951V30.0771C67.0151 30.5838 66.8203 31.0309 66.4307 31.4185C66.0411 31.7762 65.5765 31.955 65.037 31.955ZM67.6895 21.4473H70.4319C71.1812 21.4473 71.7657 21.2387 72.1853 20.8213C72.6349 20.404 72.8596 19.8674 72.8596 19.2116C72.8596 18.526 72.6349 17.9895 72.1853 17.6019C71.7657 17.1846 71.1812 16.976 70.4319 16.976H67.6895C67.2399 16.976 67.0151 17.1995 67.0151 17.6467V20.7766C67.0151 21.2238 67.2399 21.4473 67.6895 21.4473ZM35.2403 31.9997C33.8908 31.9997 32.6293 31.7809 31.4558 31.3432C30.2823 30.8764 29.3582 30.2637 28.6835 29.505C28.3608 29.1549 28.1994 28.7464 28.1994 28.2796C28.1994 27.7835 28.3901 27.3459 28.7715 26.9666C29.1529 26.5873 29.6076 26.3976 30.1357 26.3976C30.6344 26.3976 31.0598 26.5727 31.4118 26.9228C31.9106 27.3896 32.5413 27.7544 33.3041 28.017C34.0668 28.2796 34.8149 28.4109 35.5484 28.4109C36.3111 28.4109 36.9712 28.2504 37.5286 27.9294C38.086 27.5793 38.3647 27.0395 38.3647 26.3101C38.3647 25.6973 38.1007 25.2305 37.5726 24.9095C37.0739 24.5594 36.2231 24.2822 35.0203 24.078C32.8787 23.7278 31.2651 23.1443 30.1797 22.3273C29.0942 21.4811 28.5515 20.2994 28.5515 18.7822C28.5515 17.1482 29.1822 15.8498 30.4437 14.8869C31.7052 13.8949 33.3627 13.3989 35.4163 13.3989C37.5286 13.3989 39.2155 13.9387 40.477 15.0182C40.9757 15.4267 41.2251 15.9082 41.2251 16.4625C41.2251 16.9294 41.0344 17.3379 40.653 17.688C40.301 18.009 39.8756 18.1694 39.3769 18.1694C38.9955 18.1694 38.6434 18.0673 38.3207 17.8631C37.2059 17.1628 36.0324 16.8127 34.8003 16.8127C34.0668 16.8127 33.4508 16.9586 32.952 17.2503C32.4533 17.5421 32.2039 17.9798 32.2039 18.5633C32.2039 19.1761 32.5853 19.6575 33.3481 20.0076C34.1402 20.3578 35.2843 20.6787 36.7805 20.9705C37.602 21.1164 38.4087 21.379 39.2008 21.7583C40.0223 22.1085 40.697 22.6482 41.2251 23.3777C41.7825 24.1071 42.0612 25.0992 42.0612 26.3538C42.0612 28.017 41.4158 29.3737 40.125 30.4241C38.8635 31.4745 37.2352 31.9997 35.2403 31.9997ZM10.9957 31.5126C11.3684 31.8374 11.8415 31.9997 12.4149 31.9997C12.9883 31.9997 13.3432 31.8374 13.7159 31.5126C14.0886 31.1583 14.2714 30.7006 14.2427 30.1397V21.1049C14.2427 20.7211 14.4165 20.5292 14.7319 20.5292C14.9613 20.5292 15.1064 20.6325 15.2211 20.8392L21.2312 30.7597C21.4893 31.173 21.8046 31.4683 22.1774 31.6454C22.5501 31.8521 22.9228 31.9555 23.2955 31.9555C23.869 31.9555 24.385 31.7488 24.8438 31.3354C25.3025 30.9221 25.5319 30.3463 25.5319 29.6082V15.259C25.5319 14.6685 25.3455 14.2108 24.9728 13.886C24.6287 13.5613 24.17 13.3989 23.5966 13.3989C23.0232 13.3989 22.6684 13.5613 22.2956 13.886C21.9229 14.2108 21.7401 14.6685 21.7688 15.259V23.9837C21.7688 24.338 21.6416 24.5151 21.3549 24.5151C21.1255 24.5151 20.9427 24.4118 20.828 24.2051L14.8233 14.5946C14.5652 14.1813 14.2499 13.886 13.8771 13.7089C13.5044 13.5022 13.1174 13.3989 12.716 13.3989C12.1426 13.3989 11.6265 13.6055 11.1677 14.0189C10.709 14.4027 10.4796 14.9785 10.4796 15.7461V30.1397C10.4796 30.7006 10.6517 31.1583 10.9957 31.5126ZM4.67575 31.9997C4.14614 31.9997 3.70015 31.8226 3.33778 31.4683C2.97541 31.114 2.79422 30.6711 2.79422 30.1397V15.3032C2.79422 14.7423 2.97541 14.2846 3.33778 13.9303C3.70015 13.576 4.14614 13.3989 4.67575 13.3989C5.23324 13.3989 5.67923 13.576 6.01373 13.9303C6.3761 14.2846 6.55728 14.7423 6.55728 15.3032V30.1397C6.55728 30.7006 6.3761 31.1583 6.01373 31.5126C5.67923 31.8374 5.23324 31.9997 4.67575 31.9997ZM82.1215 32.0001C81.5919 32.0001 81.1459 31.8229 80.7835 31.4687C80.4212 31.1144 80.24 30.6715 80.24 30.1401V15.3046C80.24 14.7437 80.4212 14.2861 80.7835 13.9318C81.1459 13.5775 81.5919 13.4004 82.1215 13.4004C82.679 13.4004 83.125 13.5775 83.4595 13.9318C83.8219 14.2861 84.0031 14.7437 84.0031 15.3046V30.1401C84.0031 30.7011 83.8219 31.1587 83.4595 31.5129C83.125 31.8377 82.679 32.0001 82.1215 32.0001ZM82.1256 9.30044C84.7079 9.30044 86.8012 7.21846 86.8012 4.65022C86.8012 2.08197 84.7079 0 82.1256 0C79.5433 0 77.45 2.08197 77.45 4.65022C77.45 7.21846 79.5433 9.30044 82.1256 9.30044Z" fill="white"/>
</svg>
