<?xml version="1.0" encoding="UTF-8"?>
<svg id="Layer_1" xmlns="http://www.w3.org/2000/svg" version="1.1" viewBox="0 0 900 232.35">
  <!-- Generator: Adobe Illustrator 29.8.1, SVG Export Plug-In . SVG Version: 2.1.1 Build 2)  -->
  <rect x="454.74" y="54.59" width="3.42" height="123.17"/>
  <path d="M397.45,95.05c10.16,0,15.51-5.35,15.51-13.15,0-5.56-4.71-9.57-13.05-9.57-10.16,0-15.61,5.35-15.61,13.26,0,5.45,4.81,9.47,13.15,9.47M107.46,141.74c-2.67,0-3.8-1.66-3.8-4.87,0-4.38,2.94-12.89,6.58-20.05,5.88-11.66,9.63-15.08,13.05-15.08,1.93,0,2.67,1.07,2.67,2.67,0,1.07-.32,2.46-.96,4.17-2.25,6.2-5.35,14.38-8.24,21.44-3.74,9.09-5.88,11.71-9.3,11.71M96.44,155.64c7.59,0,13.48-3.85,18.61-12.51.43-.75.7-.96,1.07-.96.43,0,.59.32.64.96.32,6.68,3.8,11.55,12.25,11.55s14.01-3.37,18.23-10.48c.59-.96.75-1.18,1.18-1.18s.64.43.96,1.18c3.21,7.27,10.59,12.09,20.32,12.09,13.15,0,23.21-6.2,29.73-20.96.64-1.5.96-2.35.96-2.78,0-.37-.16-.59-.48-.59s-.59.16-1.34,1.02c-4.6,5.24-9.73,8.13-16.04,8.13-9.3,0-13.26-5.24-13.26-15.51,0-12.41,8.56-24.6,17.97-24.6,2.67,0,3.85,1.34,3.85,2.73,0,1.28-.59,2.25-3.85,3.53-6.15,2.41-9.47,5.61-9.47,11.76s4.33,10.64,10.75,10.64c7.7,0,12.57-5.19,14.55-13.37.37-1.66.86-2.67,1.82-3.96,4.17-5.78,8.07-7.7,10.75-7.7,2.35,0,3.42,1.23,3.42,3.37,0,6.26-16.1,17.33-16.1,32.19,0,8.98,5.94,15.35,15.03,15.35,7.7,0,14.17-3.58,18.56-11.76.37-.7.64-1.02,1.07-1.02.53,0,.7.43.86,1.71.75,5.78,4.28,10.11,11.87,10.11,8.24,0,13.05-4.55,16.68-10.8.37-.64.75-1.23,1.23-1.23.43,0,.7.43,1.12,1.07,5.4,8.82,15.08,14.49,25.24,14.49,14.55,0,21.71-8.72,22.08-19.36.05-.8.21-1.12.64-1.12.37,0,.64.37.91,1.07,5.24,13.21,15.29,19.3,27.06,19.3s20.43-7.38,20.43-18.72c0-5.03-1.93-9.68-4.81-12.51-.32-.32-.59-.48-.8-.48s-.37.16-.37.48c0,.48.43,1.44.43,2.62,0,3.8-1.82,5.4-6.84,5.4-4.71,0-9.36-1.44-12.46-3.64,16.42-5.67,22.51-11.34,28.18-18.82,3.69-4.92,5.99-6.9,9.3-6.9,2.57,0,4.17,1.5,4.17,4.33,0,8.13-13.8,20.32-13.8,31.87,0,7.27,5.24,13.9,15.72,13.9,9.36,0,18.18-5.51,21.23-17.33.27-1.12.37-1.71.37-1.98,0-.37-.16-.59-.48-.59s-.53.21-.7.53c-2.78,5.56-5.56,6.95-8.13,6.95-2.03,0-3.21-1.18-3.21-2.78,0-5.88,10.21-15.94,10.21-28.45,0-8.72-5.56-13.9-16.26-13.9-8.72,0-13.9,3.37-18.93,8.82-.64.75-1.07.86-1.5.86-.48,0-.86-.27-1.28-.75-5.78-7.01-12.94-11.39-21.07-11.39-12.51,0-18.77,7.97-18.77,18.07,0,3.85,1.23,6.9,2.94,9.14.27.37.43.53.64.53s.37-.11.37-.7c0-3.26,1.39-5.13,7.27-5.13,3.8,0,10.59,1.93,14.92,4.28-10.32,6.74-26.42,11.82-34.22,11.82-1.28,0-1.71-.21-1.98-1.23-.64-2.3-1.5-4.38-2.67-5.78-.27-.32-.43-.43-.64-.43-.27,0-.43.16-.43.48,0,.27.11.96.11,1.5,0,4.71-2.83,6.68-9.79,6.68-6.58,0-13.15-2.41-17.22-5.88,9.41-3.32,23.74-4.6,32.08-12.19,5.83-5.29,8.07-11.39,8.07-18.45,0-5.35-2.89-9.2-7.17-9.2s-6.9,2.89-6.9,7.17c0,3.85,2.46,6.36,6.1,8.72,1.28.8,2.14,1.71,2.14,2.89,0,1.28-.8,2.19-2.03,2.19s-2.41-.96-3.69-2.46c-6.63-7.81-11.92-11.23-20.75-11.23-11.55,0-18.34,6.84-18.34,16.9,0,2.78.86,6.68,2.25,8.93.16.27.32.43.48.43.27,0,.32-.16.37-.53.37-3.42,2.89-5.35,9.3-5.35,3.9,0,8.88,1.23,14.22,3.42-15.29,4.87-26.74,6.42-36.74,20.96-1.55,2.3-3.1,3.58-5.03,3.58-1.6,0-2.46-.91-2.46-2.73s1.39-5.45,3.64-11.02c3.85-9.63,8.72-21.12,12.51-29.25.48-1.07.86-1.76.86-2.19,0-.32-.21-.64-.75-.64-1.18,0-4.81.96-11.34.96-7.27,0-11.34-1.28-12.19-1.28s-1.18.21-1.6,1.71c-2.57,9.73-6.58,22.67-10.32,32.19-2.89,7.27-4.97,9.3-8.29,9.3-2.46,0-3.74-1.6-3.74-3.96,0-7.59,12.3-18.18,12.3-28.13,0-7.38-5.03-12.19-13.9-12.19-7.81,0-14.22,2.83-20,9.84-.53.64-.8.86-1.12.86s-.48-.21-.7-.86c-2.19-6.31-7.38-10.48-16.58-10.48-20.32,0-37.22,17.06-38.18,37.81-.11,1.82-.37,2.51-.96,3.58-2.62,4.76-4.97,6.2-7.11,6.2-2.35,0-3.05-1.6-3.05-3.42,0-1.6.64-3.74,2.78-9.52,5.88-15.72,9.3-23.53,13.15-30.8.53-1.07.64-1.39.64-1.66,0-.21-.11-.37-.43-.37-.27,0-.59.11-1.39.53-1.93,1.07-4.6,2.46-6.84,3.42-.75.32-1.07.43-1.5.43-.53,0-.91-.21-1.76-1.07-3.74-3.74-8.72-5.78-16.74-5.78-10.05,0-18.13,3.21-25.51,9.09-10.37,8.24-18.23,21.66-18.23,33.74,0,9.2,5.56,16.63,15.61,16.63M31.1,160.02c20.75,0,35.83-12.3,45.13-33.26,3.96-8.88,8.13-20.64,11.87-29.84,4.28-10.48,7.22-15.45,8.98-18.23.75-1.18.86-1.5.86-1.71,0-.43-.32-.7-1.93-.91-1.5-.21-4.92-.53-8.13-.53-22.35,0-29.36,10.86-34.28,31.92-2.57,10.91-5.08,22.83-7.65,30.96-3.53,11.02-8.88,15.19-18.18,15.19-5.99,0-8.77-2.73-8.77-5.61,0-2.62,1.5-3.85,5.88-4.44,10.16-1.44,15.19-6.52,15.19-14.87,0-7.59-4.81-13.37-14.01-13.37-12.09,0-21.07,9.3-21.07,22.14,0,13.58,9.73,22.57,26.1,22.57M420.2,144.67l-1.64-2.99h1.16l1.88,2.99h-1.4ZM418.73,146.5c2.85,0,5.16-2.32,5.16-5.19s-2.31-5.19-5.16-5.19-5.16,2.32-5.16,5.19,2.31,5.19,5.16,5.19M418.73,147.46c-3.4,0-6.15-2.75-6.15-6.15s2.75-6.15,6.15-6.15,6.15,2.75,6.15,6.15-2.75,6.15-6.15,6.15M417.67,141.14h.99c.94,0,1.43-.36,1.43-1.13,0-.82-.48-1.13-1.38-1.13h-1.04v2.25ZM416.48,144.67v-6.76h2.31c1.18,0,2.55.44,2.55,2.02s-1.47,2.12-2.72,2.12h-.94v2.63h-1.2Z"/>
  <g>
    <path d="M498.12,97.38h16.69c9.58,0,14.44,4.45,14.44,11.84,0,6.91-4.31,9.85-7.8,11.15,5.06.75,9.78,4.24,9.78,11.22,0,8.07-6.36,13.68-15.53,13.68h-17.58v-47.89ZM504.01,102.03v16.21h8.96c6.64,0,10.33-2.87,10.33-8.55,0-5.13-3.08-7.66-9.58-7.66h-9.71ZM504.01,140.61h9.65c8.96,0,11.63-4.24,11.63-8.96,0-6.36-4.86-8.76-11.84-8.76h-9.44v17.72Z"/>
    <path d="M558.67,141.02c-2.33,2.94-5.68,5.06-11.01,5.06-6.02,0-10.54-3.56-10.54-9.1,0-8.62,10.13-11.08,21.48-11.08v-1.98c0-4.31-2.19-7.39-7.11-7.39s-7.11,2.74-7.32,6.23l-5.75-.82c.75-6.5,6.64-9.78,13.27-9.78,7.66,0,12.52,4.31,12.52,11.22v17.51c0,2.05.34,3.08.75,4.38h-5.54c-.34-.75-.75-2.46-.75-4.24ZM558.6,132.81v-2.8c-9.24,0-15.67,1.92-15.67,6.57,0,3.28,2.53,5.06,6.43,5.06,4.72,0,9.24-3.28,9.24-8.83Z"/>
    <path d="M588.77,144.79c-1.3.75-3.49,1.3-5.82,1.3-5.68,0-8.35-3.69-8.35-7.94v-20.8h-5.47v-4.38h5.47v-9.24l5.75-2.6v11.84h7.53v4.38h-7.53v20.25c0,2.33,1.3,3.69,3.35,3.69,1.16,0,2.33-.41,3.22-1.03l1.85,4.52Z"/>
    <path d="M595.62,97.38h5.75v20.05c1.98-3.08,4.99-5.27,9.85-5.27,6.23,0,11.49,3.56,11.49,10.74v22.37h-5.75v-21.48c0-4.93-3.56-6.91-6.91-6.91-4.52,0-8.69,4.04-8.69,10.81v17.58h-5.75v-47.89Z"/>
    <path d="M668,123.78l12.86,21.48h-7.25l-12.18-21.07h-9.3v21.07h-5.88v-47.89h16.83c5.61,0,15.87,1.92,15.87,12.79,0,7.11-4.38,12.11-10.95,13.61ZM661.64,102.17h-9.51v17.31h10.54c7.46,0,10.33-4.1,10.33-8.96,0-5.68-4.04-8.35-11.36-8.35Z"/>
    <path d="M713.15,137.88c-2.46,4.93-6.57,8.21-13.27,8.21-9.71,0-15.39-7.18-15.39-17.03s5.81-16.9,15.19-16.9c9.85,0,14.57,7.73,14.57,16.08v1.92h-23.88c.27,6.09,3.01,11.49,9.58,11.49,4.45,0,6.5-2.12,8.14-5.81l5.06,2.05ZM690.57,125.84h17.79c-.27-5.68-3.83-9.24-8.83-9.24s-8.42,3.97-8.96,9.24Z"/>
    <path d="M721.84,112.97h5.4v4.86c2.12-3.49,5.13-5.68,9.71-5.68s8.14,2.12,9.72,5.88c1.78-2.94,5.68-5.88,10.47-5.88,5.81,0,10.67,3.56,10.67,10.74v22.37h-5.75v-21.48c0-4.93-3.15-6.91-6.23-6.91-4.24,0-8.14,4.04-8.14,10.81v17.58h-5.75v-21.48c0-4.93-3.22-6.91-6.29-6.91-4.17,0-8.07,4.04-8.07,10.81v17.58h-5.75v-32.29Z"/>
    <path d="M806.68,129.12c0,9.78-5.68,16.97-15.53,16.97s-15.53-7.18-15.53-16.97,5.68-16.97,15.53-16.97,15.53,7.18,15.53,16.97ZM800.72,129.12c0-6.77-3.15-12.38-9.58-12.38s-9.58,5.61-9.58,12.38,3.15,12.38,9.58,12.38,9.58-5.61,9.58-12.38Z"/>
    <path d="M838.01,117.08v-19.7h5.75v47.89h-5.4v-4.86c-1.85,2.94-4.99,5.68-10.6,5.68-8.55,0-14.85-6.5-14.85-16.97s6.29-16.97,14.85-16.97c5.06,0,8.21,2.33,10.26,4.93ZM838.01,126.73c0-7.73-5.88-9.85-9.65-9.85-5.88,0-9.51,5.27-9.51,12.25s3.63,12.25,9.51,12.25c3.76,0,9.65-2.12,9.65-9.85v-4.79Z"/>
    <path d="M880.56,137.88c-2.46,4.93-6.57,8.21-13.27,8.21-9.71,0-15.39-7.18-15.39-17.03s5.81-16.9,15.19-16.9c9.85,0,14.57,7.73,14.57,16.08v1.92h-23.88c.27,6.09,3.01,11.49,9.58,11.49,4.45,0,6.5-2.12,8.14-5.81l5.06,2.05ZM857.99,125.84h17.79c-.27-5.68-3.83-9.24-8.83-9.24s-8.42,3.97-8.96,9.24Z"/>
    <path d="M889.25,97.38h5.75v47.89h-5.75v-47.89Z"/>
  </g>
</svg>