<?xml version="1.0" encoding="UTF-8"?>
<svg id="Layer_2" data-name="Layer 2" xmlns="http://www.w3.org/2000/svg" xmlns:xlink="http://www.w3.org/1999/xlink" version="1.1" viewBox="0 0 160 45">
  <defs>
    <style>
      .cls-1 {
        fill: url(#linear-gradient);
      }

      .cls-1, .cls-2 {
        stroke-width: 0px;
      }

      .cls-2 {
        fill: #fff;
      }
    </style>
    <linearGradient id="linear-gradient" x1="136.9" y1="22.5" x2="160" y2="22.5" gradientUnits="userSpaceOnUse">
      <stop offset=".2" stop-color="#24b1da"/>
      <stop offset=".9" stop-color="#1f5d77"/>
    </linearGradient>
  </defs>
  <g>
    <path class="cls-2" d="M0,37.7v-9.9h1.8c.4,0,3-.3,3,2.9s-1.1,2.9-2.7,2.9h-.4s0,4,0,4H0ZM1.8,32c.8,0,1.3-.3,1.3-1.3s-.2-1.3-1-1.3h-.3v2.6Z"/>
    <path class="cls-2" d="M13.7,27.8v1.8h-1.8v2.1h1.6v1.8h-1.6v2.2h1.8v1.8h-3.6v-9.9h3.5Z"/>
    <path class="cls-2" d="M19.2,37.7v-9.9h1.8c1.1,0,3.1.1,3.1,2.8s-.4,2-1.3,2.6l1.5,4.5h-1.8l-1.5-4.6h0v4.6h-1.8ZM21,32h.3c.8,0,1.1-.6,1.1-1.4s-.3-1.3-1.2-1.2h-.2v2.6Z"/>
    <path class="cls-2" d="M33.4,30c-.4-.3-.8-.6-1.3-.6s-.9.4-.9,1c0,1.6,2.7,1.7,2.7,4.4s-.9,3.1-2.6,3.1-1.1-.2-1.5-.5v-1.9c.4.3.8.5,1.3.5s1-.4,1-1.1-.5-1-1-1.4c-1-.8-1.6-1.5-1.6-2.9s.8-2.9,2.3-2.9,1.1.2,1.6.5v1.9Z"/>
    <path class="cls-2" d="M45.2,32.7c0,3.7-1.6,5.1-3.1,5.1s-3.1-1.4-3.1-5.1,1.6-5.1,3.1-5.1,3.1,1.4,3.1,5.1ZM42.1,36c1.2,0,1.2-2.5,1.2-3.3s0-3.3-1.2-3.3-1.2,2.4-1.2,3.3,0,3.3,1.2,3.3Z"/>
    <path class="cls-2" d="M52.3,27.8l2.2,6h0c-.1-.5-.1-1-.1-1.5v-4.4h1.8v9.9h-1.7l-2.2-6h0s0,1,0,1v.4s0,4.5,0,4.5h-1.8v-9.9h1.7Z"/>
    <path class="cls-2" d="M65.2,27.8l2.1,9.9h-1.9l-.3-1.7h-1.8l-.3,1.7h-1.7l2.1-9.9h1.8ZM64.5,31.8l-.2-1.5h0l-.2,1.5-.4,2.6h1.2l-.4-2.6Z"/>
    <path class="cls-2" d="M74.3,27.8v8h1.8v1.8h-3.6v-9.9h1.8Z"/>
    <path class="cls-2" d="M90.9,27.8v8h1.8v1.8h-3.6v-9.9h1.8Z"/>
    <path class="cls-2" d="M103.8,32.7c0,3.7-1.6,5.1-3.1,5.1s-3.1-1.4-3.1-5.1,1.6-5.1,3.1-5.1,3.1,1.4,3.1,5.1ZM100.6,36c1.2,0,1.2-2.5,1.2-3.3s0-3.3-1.2-3.3-1.2,2.4-1.2,3.3,0,3.3,1.2,3.3Z"/>
    <path class="cls-2" d="M112.3,27.8l2.1,9.9h-1.9l-.3-1.7h-1.8l-.3,1.7h-1.7l2.1-9.9h1.8ZM111.5,31.8l-.2-1.5h0l-.2,1.5-.4,2.6h1.2l-.4-2.6Z"/>
    <path class="cls-2" d="M121.3,27.8l2.2,6h0c-.1-.5-.1-1-.1-1.5v-4.4h1.8v9.9h-1.7l-2.2-6h0s0,1,0,1v.4s0,4.5,0,4.5h-1.8v-9.9h1.7Z"/>
  </g>
  <g>
    <path class="cls-2" d="M3.7,7.7h5.4l3.3,9.7h0l2-9.7h5.2l-3.7,17.7h-5.4l-3.2-9.9h0l-2.1,9.9H0L3.7,7.7Z"/>
    <path class="cls-2" d="M22.9,7.7h14.6l-.9,4.5h-9.2l-.5,2.2h8.5l-.9,4.2h-8.5l-.5,2.2h9.4l-.9,4.5h-14.8l3.7-17.7Z"/>
    <path class="cls-2" d="M43.6,16l-4.1-8.3h5.9l1.7,4.6,3.5-4.6h6.5l-7.4,8.3,4.3,9.4h-6.1l-2-5-4.1,5h-6.7l8.4-9.4Z"/>
    <path class="cls-2" d="M62.4,12.2h-4.9l.9-4.5h15.3l-.9,4.5h-4.9l-2.7,13.2h-5.5l2.7-13.2Z"/>
    <path class="cls-2" d="M84.4,7.7h8.2c3.2,0,7.3,2,7,7.8-.3,5.9-4,9.9-10.1,9.9h-8.8l3.7-17.7ZM87.1,20.9h2.6c3.6,0,4.4-3.7,4.4-5.3,0-2.7-1.4-3.3-3.2-3.3h-2l-1.8,8.6Z"/>
    <path class="cls-2" d="M108,7.7h5.4l2.8,17.7h-5.4l-.3-2.5h-5.8l-1.4,2.5h-5.6l10.2-17.7ZM106.6,19.1h3.4l-.6-5.3h0l-2.8,5.3Z"/>
    <path class="cls-2" d="M121,18.9l-3.8-11.2h5.5l1.7,6.6,4.3-6.6h6.4l-8.6,11.2-1.3,6.5h-5.5l1.3-6.5Z"/>
  </g>
  <path class="cls-1" d="M160,22.5l-19.3,19.3v-9.6l9.6-9.6-9.6-9.6V3.2l19.3,19.3ZM140.7,17.9l-3.8-3.8v16.8l3.8-3.8,4.6-4.6-4.6-4.6Z"/>
</svg>