<?xml version="1.0" encoding="UTF-8"?>
<svg width="324px" height="62px" viewBox="0 0 324 62" version="1.1" xmlns="http://www.w3.org/2000/svg" xmlns:xlink="http://www.w3.org/1999/xlink">
    <title>Group 26</title>
    <defs>
        <polygon id="path-1" points="0 62 324 62 324 0 0 0"></polygon>
    </defs>
    <g id="Page-1" stroke="none" stroke-width="1" fill="none" fill-rule="evenodd">
        <g id="Home" transform="translate(-47.000000, -37.000000)">
            <g id="Group-26" transform="translate(47.000000, 37.000000)">
                <polygon id="Fill-1" fill="#26A0CD" points="27.4703539 0 27.2253581 0.0439574758 27.1335737 0.0610652502 1.58215539 4.69822254 1.15027037 4.77639556 0 4.9859658 0 6.14691838 0 6.58387945 0 45.8101052 0 46.118758 0 46.9420696 0.730718148 47.3422015 1.00512285 47.4923697 26.5558296 61.498172 26.8055687 61.6352718 27.4698795 62 28.1356133 61.6352718 28.3858268 61.498172 53.9951143 47.4923697 54.2690447 47.3422015 55 46.9432577 55 46.1192332 55 45.8101052 55 6.58387945 55 6.14691838 55 4.98454015 53.8497296 4.77639556 53.4173703 4.69822254 27.8080827 0.0610652502 27.7158239 0.0439574758"></polygon>
                <polygon id="Fill-2" fill="#FFFFFF" points="4 15 49 15 49 12 4 12"></polygon>
                <polygon id="Fill-3" fill="#FFFFFF" points="8 20 47 20 47 17 8 17"></polygon>
                <path d="M37.451516,44.8109345 L35.3001903,46.0421484 L35.3001903,25.5163776 L37.451516,25.5163776 L37.451516,44.8109345 Z M20.7002799,46.0421484 L18.4100149,44.7316956 L18.4100149,25.5163776 L20.7002799,25.5163776 L20.7002799,46.0421484 Z M12,22 L12,25.5163776 L14.9776736,25.5163776 L14.9776736,40.7182081 L14.9776736,42.767341 L14.9776736,47.1907514 L18.4100149,49.1548651 L20.7002799,50.4653179 L24.1323861,52.4294316 L24.1323861,48.0065029 L24.1323861,25.5163776 L26.2839469,25.5163776 L26.2839469,53 L29.7162882,53 L29.7162882,25.5163776 L31.867849,25.5163776 L31.867849,48.0065029 L31.867849,52.4294316 L35.3001903,50.4653179 L37.5902202,49.1548651 L40.8836222,47.2699904 L40.8836222,40.6083815 L40.8838573,40.6083815 L40.8838573,25.5163776 L44,25.5163776 L44,22 L12,22 Z" id="Fill-4" fill="#FFFFFF"></path>
                <path d="M74.6011296,34.8571258 L72.0001204,27.2285201 L69.3410648,34.8571258 L74.6011296,34.8571258 Z M74.3988102,22 L82,42 L76.9422547,42 L75.6416296,38.2570092 L68.3005648,38.2570092 L67.0290834,42 L62,42 L69.5722871,22 L74.3988102,22 Z" id="Fill-5" fill="#FFFFFF"></path>
                <g id="Group-25">
                    <path d="M101.686475,35.4056865 C101.372473,38.3992979 99.6885162,43.0183793 92.6094283,43.0183793 C87.4997536,43.0183793 82.8187397,40.6803258 82.8187397,32.8395302 C82.8187397,22.3187644 90.4970488,21.9195846 92.4381543,21.9195846 C99.54555,21.9195846 101.315381,26.3388384 101.45811,29.2756618 L96.8339494,29.2756618 C96.3772187,25.9398961 93.751255,25.7973319 92.6665196,25.7973319 C91.6103299,25.7973319 87.8996308,25.9966842 87.8996308,32.6684531 C87.8996308,36.432149 89.6121331,39.140632 92.809248,39.140632 C95.920488,39.140632 96.776858,36.8883546 97.0052234,35.4056865 L101.686475,35.4056865 Z" id="Fill-6" fill="#FFFFFF"></path>
                    <path d="M122.55305,35.4056865 C122.239047,38.3992979 120.555091,43.0183793 113.476003,43.0183793 C108.366328,43.0183793 103.685314,40.6803258 103.685314,32.8395302 C103.685314,22.3187644 111.363623,21.9195846 113.304729,21.9195846 C120.412125,21.9195846 122.181956,26.3388384 122.324684,29.2756618 L117.700524,29.2756618 C117.243793,25.9398961 114.61783,25.7973319 113.533094,25.7973319 C112.476904,25.7973319 108.766205,25.9966842 108.766205,32.6684531 C108.766205,36.432149 110.478708,39.140632 113.675823,39.140632 C116.787063,39.140632 117.643433,36.8883546 117.871798,35.4056865 L122.55305,35.4056865 Z" id="Fill-8" fill="#FFFFFF"></path>
                    <mask id="mask-2" fill="white">
                        <use xlink:href="#path-1"></use>
                    </mask>
                    <g id="Clip-11"></g>
                    <polygon id="Fill-10" fill="#FFFFFF" mask="url(#mask-2)" points="125.493658 42.4480273 130.203455 42.4480273 130.203455 22.4897465 125.493658 22.4897465"></polygon>
                    <path d="M139.309238,38.57047 L142.306533,38.57047 C145.988687,38.57047 147.81561,36.6601092 147.81561,32.5259839 C147.81561,26.994729 144.561403,26.3674463 142.59199,26.3674463 L139.309238,26.3674463 L139.309238,38.57047 Z M143.191211,22.4899366 C145.103771,22.4899366 152.896263,22.7180394 152.896263,32.4404453 C152.896263,41.8777228 145.988687,42.4479798 142.763264,42.4479798 L134.599441,42.4479798 L134.599441,22.4899366 L143.191211,22.4899366 Z" id="Fill-12" fill="#FFFFFF" mask="url(#mask-2)"></path>
                    <polygon id="Fill-13" fill="#FFFFFF" mask="url(#mask-2)" points="170.794254 30.4160569 170.794254 34.0939767 161.032112 34.0939767 161.032112 38.5704938 172.392812 38.5704938 172.392812 42.4480035 156.322314 42.4480035 156.322314 22.4899603 172.107593 22.4899603 172.107593 26.3674701 161.032112 26.3674701 161.032112 30.4160569"></polygon>
                    <polygon id="Fill-14" fill="#FFFFFF" mask="url(#mask-2)" points="179.928964 29.9598751 179.928964 42.4480273 175.219166 42.4480273 175.219166 22.4899841 179.986055 22.4899841 187.864184 34.8923602 187.950059 34.8923602 187.950059 22.4899841 192.659856 22.4899841 192.659856 42.4480273 187.864184 42.4480273 179.986055 29.9598751"></polygon>
                    <polygon id="Fill-15" fill="#FFFFFF" mask="url(#mask-2)" points="195.286676 26.3674463 195.286676 22.4899366 212.071053 22.4899366 212.071053 26.3674463 206.047917 26.3674463 206.047917 42.4479798 201.33812 42.4479798 201.33812 26.3674463"></polygon>
                    <path d="M235.367578,32.4689106 C235.367578,30.6440884 235.139213,25.7971418 230.343778,25.7971418 C227.746122,25.7971418 225.348524,27.1942714 225.348524,32.4689106 C225.348524,37.6865242 227.746122,39.1406795 230.343778,39.1406795 C235.139213,39.1406795 235.367578,34.1511687 235.367578,32.4689106 M220.239087,32.4689106 C220.239087,27.821554 222.465412,21.9196321 230.343778,21.9196321 C237.223047,21.9196321 240.448469,26.4246621 240.448469,32.4689106 C240.448469,38.5133968 237.223047,43.0181892 230.343778,43.0181892 C222.465412,43.0181892 220.239087,37.1165049 220.239087,32.4689106" id="Fill-16" fill="#FFFFFF" mask="url(#mask-2)"></path>
                    <polygon id="Fill-17" fill="#FFFFFF" mask="url(#mask-2)" points="256.862443 30.9293357 256.862443 34.8068454 248.584437 34.8068454 248.584437 42.448051 243.874639 42.448051 243.874639 22.4897702 258.375125 22.4897702 258.375125 26.3675176 248.584437 26.3675176 248.584437 30.9293357"></polygon>
                    <polygon id="Fill-18" fill="#FFFFFF" mask="url(#mask-2)" points="273.90366 30.9293357 273.90366 34.8068454 265.625654 34.8068454 265.625654 42.448051 260.915856 42.448051 260.915856 22.4897702 275.416342 22.4897702 275.416342 26.3675176 265.625654 26.3675176 265.625654 30.9293357"></polygon>
                    <polygon id="Fill-19" fill="#FFFFFF" mask="url(#mask-2)" points="277.957264 42.4480273 282.667061 42.4480273 282.667061 22.4897465 277.957264 22.4897465"></polygon>
                    <path d="M304.988894,35.4056865 C304.674892,38.3992979 302.990935,43.0183793 295.911847,43.0183793 C290.802172,43.0183793 286.121158,40.6803258 286.121158,32.8395302 C286.121158,22.3187644 293.799468,21.9195846 295.740573,21.9195846 C302.847969,21.9195846 304.6178,26.3388384 304.760529,29.2756618 L300.136368,29.2756618 C299.679637,25.9398961 297.053674,25.7973319 295.968938,25.7973319 C294.912749,25.7973319 291.20205,25.9966842 291.20205,32.6684531 C291.20205,36.432149 292.914552,39.140632 296.111667,39.140632 C299.222907,39.140632 300.079277,36.8883546 300.307642,35.4056865 L304.988894,35.4056865 Z" id="Fill-20" fill="#FFFFFF" mask="url(#mask-2)"></path>
                    <polygon id="Fill-21" fill="#FFFFFF" mask="url(#mask-2)" points="322.401561 30.4160569 322.401561 34.0939767 312.639419 34.0939767 312.639419 38.5704938 324.000119 38.5704938 324.000119 42.4480035 307.929621 42.4480035 307.929621 22.4899603 323.714662 22.4899603 323.714662 26.3674701 312.639419 26.3674701 312.639419 30.4160569"></polygon>
                    <polygon id="Fill-22" fill="#FFFFFF" mask="url(#mask-2)" points="64.9245067 12.4762719 64.9245067 11.183927 70.5185062 11.183927 70.5185062 12.4762719 68.5110321 12.4762719 68.5110321 17.8357369 66.9414961 17.8357369 66.9414961 12.4762719"></polygon>
                    <polygon id="Fill-23" fill="#FFFFFF" mask="url(#mask-2)" points="72.9358962 17.8357606 71.3661223 17.8357606 71.3661223 11.1839508 72.9358962 11.1839508 72.9358962 13.6831019 75.352287 13.6831019 75.352287 11.1839508 76.9220609 11.1839508 76.9220609 17.8357606 75.352287 17.8357606 75.352287 14.9754468 72.9358962 14.9754468"></polygon>
                    <polygon id="Fill-24" fill="#FFFFFF" mask="url(#mask-2)" points="83.2115757 13.8256899 83.2115757 15.0515048 79.9580831 15.0515048 79.9580831 16.5434396 83.7444282 16.5434396 83.7444282 17.8357844 78.3883092 17.8357844 78.3883092 11.1839746 83.6492759 11.1839746 83.6492759 12.4763194 79.9580831 12.4763194 79.9580831 13.8256899"></polygon>
                </g>
            </g>
        </g>
    </g>
</svg>